<svg xmlns="http://www.w3.org/2000/svg" width="13" height="12" viewBox="0 0 13 12">
  <defs>
    <style>
      .a {
        fill: #628eb6;
      }
    </style>
  </defs>
  <title>アートボード 5</title>
  <g>
    <path class="a" d="M7.5,1.9a3.6,3.6,0,0,1,1.9.8h.1l1.3-1.3h-.1A6.1,6.1,0,0,0,7.5,0H7.4V1.9Z"/>
    <path class="a" d="M9.4,9a4.6,4.6,0,0,1-1.9.8H7.4v1.9h.1a6.1,6.1,0,0,0,3.2-1.3h.1L9.5,9Z"/>
    <path class="a" d="M12.8,6.4H10.9a3.6,3.6,0,0,1-.8,1.9h0l1.3,1.3h.1A6.1,6.1,0,0,0,12.8,6.4Z"/>
    <path class="a" d="M10.1,3.4a3.6,3.6,0,0,1,.8,1.9h1.9a6.1,6.1,0,0,0-1.3-3.2h-.1L10.1,3.3Z"/>
    <path class="a" d="M6.4,0A5.4,5.4,0,0,0,3.3,1.3l-.9.8h0A6.1,6.1,0,0,0,1.1,5.3V6.4l.3,1.3h0a3.8,3.8,0,0,1,2.1.1l-.2-.4A3.5,3.5,0,0,1,3,6.4V5.3a4.6,4.6,0,0,1,.8-1.9,2.3,2.3,0,0,1,.7-.7,3.6,3.6,0,0,1,1.9-.8h.1V0Z"/>
    <path class="a" d="M3.9,8.7a4.3,4.3,0,0,0-3.7.2,4.1,4.1,0,0,0,2.5,2.8,4,4,0,0,0,3.7-.3A4,4,0,0,0,3.9,8.7Z"/>
  </g>
</svg>
